<?xml version="1.0" encoding="utf-8" ?>
<svg xmlns="http://www.w3.org/2000/svg" xmlns:xlink="http://www.w3.org/1999/xlink" width="221" height="52">
	<defs>
		<clipPath id="clip_0">
			<rect x="-99.279297" y="-52.708984" width="1919.4241" height="6478.0562" clip-rule="evenodd"/>
		</clipPath>
	</defs>
	<g clip-path="url(#clip_0)">
		<path fill="rgb(254,254,254)" stroke="none" transform="matrix(0.9997 0 0 0.9997 31.6279 0.737305)" d="M0.0268125 15.2433C0.49725 6.74578 7.52659 0 16.131 0C25.04 0 32.2611 7.23166 32.2611 16.1525L32.2611 22.1626C32.2611 31.083 25.04 38.3147 16.131 38.3147C11.1593 38.3147 6.71491 36.0616 3.75619 32.5215L3.75619 51.2529L0 51.2529L0 15.2433L0.0268125 15.2433ZM16.131 34.5585C22.9539 34.5585 28.485 29.0274 28.485 22.2044L28.485 16.1102C28.485 9.28728 22.9539 3.75619 16.131 3.75619C9.30719 3.75619 3.77609 9.28728 3.77609 16.1102L3.77609 22.2044C3.77609 29.0274 9.30719 34.5585 16.131 34.5585Z" fill-rule="evenodd"/>
	</g>
	<defs>
		<clipPath id="clip_1">
			<rect x="-99.279297" y="-52.708984" width="1919.4241" height="6478.0562" clip-rule="evenodd"/>
		</clipPath>
	</defs>
	<g clip-path="url(#clip_1)">
		<path fill="rgb(254,254,254)" stroke="none" transform="matrix(0.9997 0 0 0.9997 65.6064 0.737305)" d="M0.0268125 15.2433C0.498062 6.74578 7.52659 0 16.131 0C25.04 0 32.2619 7.23166 32.2619 16.1525L32.2619 22.1626C32.2619 31.083 25.04 38.3147 16.131 38.3147C11.1601 38.3147 6.71572 36.0616 3.757 32.5215L3.757 51.2529L0 51.2529L0 15.2433L0.0268125 15.2433ZM16.131 34.5585C22.9548 34.5585 28.485 29.0274 28.485 22.2044L28.485 16.1102C28.485 9.28728 22.9548 3.75619 16.131 3.75619C9.30719 3.75619 3.77691 9.28728 3.77691 16.1102L3.77691 22.2044C3.77691 29.0274 9.30719 34.5585 16.131 34.5585Z" fill-rule="evenodd"/>
	</g>
	<defs>
		<clipPath id="clip_2">
			<rect x="-99.279297" y="-52.708984" width="1919.4241" height="6478.0562" clip-rule="evenodd"/>
		</clipPath>
	</defs>
	<g clip-path="url(#clip_2)">
		<path fill="rgb(254,254,254)" stroke="none" transform="matrix(0.9997 0 0 0.9997 99.5854 0.748047)" d="M16.131 38.3041C21.1018 38.3041 25.5462 36.051 28.5057 32.5106L28.5057 32.5203C30.0182 30.7092 31.1415 28.561 31.7476 26.2047L27.8163 26.2047C26.1532 31.0631 21.5536 34.5585 16.131 34.5585C9.308 34.5585 3.77691 29.0274 3.77691 22.2044L3.77691 22.1938L3.77691 16.1102L3.77691 16.0997C3.77691 9.27672 9.308 3.74562 16.131 3.74562C21.5536 3.74562 26.1532 7.241 27.8163 12.0993L31.7476 12.0993C31.1415 9.74309 30.0182 7.59484 28.5057 5.78378L28.5057 5.79353C25.5462 2.25306 21.1018 0 16.131 0C7.22191 0 0 7.23166 0 16.1521L0 22.152C0 31.0724 7.22191 38.3041 16.131 38.3041L16.131 38.3041C21.1018 38.3041 25.5462 36.051 28.5057 32.5106L28.5057 32.5203C30.0182 30.7092 31.1415 28.561 31.7476 26.2047L27.8163 26.2047C26.1532 31.0631 21.5536 34.5585 16.131 34.5585C9.308 34.5585 3.77691 29.0274 3.77691 22.2044L3.77691 22.1938L3.77691 16.1102L3.77691 16.0997C3.77691 9.27672 9.308 3.74562 16.131 3.74562C21.5536 3.74562 26.1532 7.241 27.8163 12.0993L31.7476 12.0993C31.1415 9.74309 30.0182 7.59484 28.5057 5.78378L28.5057 5.79353C25.5462 2.25306 21.1018 0 16.131 0C7.22191 0 0 7.23166 0 16.1521L0 22.152C0 31.0724 7.22191 38.3041 16.131 38.3041"/>
	</g>
	<defs>
		<clipPath id="clip_3">
			<rect x="0.69091797" y="0.68164063" width="29.19046" height="38.372608" clip-rule="evenodd"/>
		</clipPath>
	</defs>
	<g clip-path="url(#clip_3)">
		<path fill="rgb(254,254,254)" stroke="none" transform="matrix(0.9997 0 0 0.9997 0.690918 0.681641)" d="M1.87159 11.8503C1.87159 5.30563 7.17681 0 13.7219 0L18.8723 0C24.5757 0 29.1992 4.62313 29.1992 10.3269L29.1992 38.3841L25.4422 38.3841L25.4422 32.604C22.4835 36.1294 18.0473 38.3699 13.0882 38.3699L10.684 38.3699C4.78278 38.3699 0 33.5802 0 27.6725C0 21.764 4.78278 16.9747 10.684 16.9747C21.6438 16.9747 25.4422 15.0995 25.4422 10.7884C25.4422 6.93509 22.3194 3.81144 18.4661 3.81144L13.7052 3.81144C9.28647 3.81144 5.70497 7.39334 5.70497 11.8117L5.70497 12.8091L1.87159 12.8091L1.87159 11.8503ZM13.0882 34.5296C19.9119 34.5296 25.4422 28.9989 25.4422 22.176L25.4422 17.7645C25.4422 19.4813 14.7432 20.577 10.8903 20.577C7.03706 20.577 3.91341 23.7002 3.91341 27.5535C3.91341 31.4068 7.03706 34.5296 10.8903 34.5296L13.0882 34.5296Z" fill-rule="evenodd"/>
	</g>
	<defs>
		<clipPath id="clip_4">
			<rect x="-99.279297" y="-52.708984" width="1919.4241" height="6478.0562" clip-rule="evenodd"/>
		</clipPath>
	</defs>
	<g clip-path="url(#clip_4)">
		<path fill="rgb(255,203,11)" stroke="none" transform="matrix(0.9997 0 0 0.9997 145.93 14.2578)" d="M11.2141 5.60706C11.2141 8.70391 8.70431 11.2137 5.60747 11.2137C2.50981 11.2137 0 8.70391 0 5.60706C0 2.50981 2.50981 0 5.60747 0C8.70431 0 11.2141 2.50981 11.2141 5.60706L11.2141 5.60706C11.2141 8.70391 8.70431 11.2137 5.60747 11.2137C2.50981 11.2137 0 8.70391 0 5.60706C0 2.50981 2.50981 0 5.60747 0C8.70431 0 11.2141 2.50981 11.2141 5.60706"/>
	</g>
	<defs>
		<clipPath id="clip_5">
			<rect x="-99.279297" y="-52.708984" width="1919.4241" height="6478.0562" clip-rule="evenodd"/>
		</clipPath>
	</defs>
	<g clip-path="url(#clip_5)">
		<path fill="rgb(255,203,11)" stroke="none" transform="matrix(0.9997 0 0 0.9997 133.066 0.737305)" d="M18.475 26.8787C14.196 26.8787 10.7278 23.4106 10.7278 19.1323C10.7278 14.8533 14.196 11.3852 18.475 11.3852C22.7532 11.3852 26.2214 14.8533 26.2214 19.1323C26.2214 23.4106 22.7532 26.8787 18.475 26.8787L18.475 26.8787C14.196 26.8787 10.7278 23.4106 10.7278 19.1323C10.7278 14.8533 14.196 11.3852 18.475 11.3852C22.7532 11.3852 26.2214 14.8533 26.2214 19.1323C26.2214 23.4106 22.7532 26.8787 18.475 26.8787M32.4707 19.1323C32.4707 18.4157 32.4167 17.7129 32.3131 17.0263L36.9501 14.1562C36.0701 10.881 34.3456 7.95194 32.0202 5.62047L27.2135 8.203C26.1207 7.32794 24.895 6.61497 23.5706 6.09659L23.4032 0.643906C21.8307 0.226281 20.1792 0 18.475 0C16.7708 0 15.1194 0.225469 13.5468 0.643906L13.3794 6.09659C12.0551 6.61497 10.8286 7.32794 9.73659 8.203L4.92903 5.62047C2.60366 7.95194 0.879937 10.881 0 14.1562L4.63653 17.0263C4.53334 17.7129 4.4785 18.4157 4.4785 19.1323C4.4785 19.8477 4.53334 20.5506 4.63653 21.2375L0 24.1077C0.879937 27.3829 2.60366 30.3115 4.92903 32.6434L9.73659 30.0613C10.8286 30.9359 12.0551 31.6489 13.3794 32.1673L13.5468 37.62C15.1194 38.038 16.7708 38.2639 18.475 38.2639C20.1792 38.2639 21.8307 38.038 23.4032 37.62L23.5698 32.1673C24.895 31.6489 26.1207 30.9359 27.2135 30.0613L32.0202 32.6434C34.3456 30.3115 36.0701 27.3829 36.9501 24.1077L32.3131 21.2375C32.4167 20.5506 32.4707 19.8477 32.4707 19.1323L32.4707 19.1323C32.4707 18.4157 32.4167 17.7129 32.3131 17.0263L36.9501 14.1562C36.0701 10.881 34.3456 7.95194 32.0202 5.62047L27.2135 8.203C26.1207 7.32794 24.895 6.61497 23.5706 6.09659L23.4032 0.643906C21.8307 0.226281 20.1792 0 18.475 0C16.7708 0 15.1194 0.225469 13.5468 0.643906L13.3794 6.09659C12.0551 6.61497 10.8286 7.32794 9.73659 8.203L4.92903 5.62047C2.60366 7.95194 0.879937 10.881 0 14.1562L4.63653 17.0263C4.53334 17.7129 4.4785 18.4157 4.4785 19.1323C4.4785 19.8477 4.53334 20.5506 4.63653 21.2375L0 24.1077C0.879937 27.3829 2.60366 30.3115 4.92903 32.6434L9.73659 30.0613C10.8286 30.9359 12.0551 31.6489 13.3794 32.1673L13.5468 37.62C15.1194 38.038 16.7708 38.2639 18.475 38.2639C20.1792 38.2639 21.8307 38.038 23.4032 37.62L23.5698 32.1673C24.895 31.6489 26.1207 30.9359 27.2135 30.0613L32.0202 32.6434C34.3456 30.3115 36.0701 27.3829 36.9501 24.1077L32.3131 21.2375C32.4167 20.5506 32.4707 19.8477 32.4707 19.1323"/>
	</g>
	<defs>
		<clipPath id="clip_6">
			<rect x="190.7168" y="0.68164063" width="29.273712" height="38.30759" clip-rule="evenodd"/>
		</clipPath>
	</defs>
	<g clip-path="url(#clip_6)">
		<path fill="rgb(254,254,254)" stroke="none" transform="matrix(0.9997 0 0 0.9997 190.717 0.681641)" d="M3.84028 20.62L3.84028 16.2086C3.84028 9.38559 9.37056 3.8545 16.1943 3.8545L18.3922 3.8545C22.2454 3.8545 25.3691 6.97775 25.3691 10.8306C25.3691 14.6839 22.2454 17.8076 18.3922 17.8076C14.5393 17.8076 3.84028 18.9028 3.84028 20.62L3.84028 20.62L3.84028 16.2086C3.84028 9.38559 9.37056 3.8545 16.1943 3.8545L18.3922 3.8545C22.2454 3.8545 25.3691 6.97775 25.3691 10.8306C25.3691 14.6839 22.2454 17.8076 18.3922 17.8076C14.5393 17.8076 3.84028 18.9028 3.84028 20.62M14.6124 34.6937C10.7372 34.6937 7.22597 32.5089 5.38037 29.4048C4.02513 27.1245 5.37875 22.9698 8.49631 22.358C11.0614 21.855 13.8036 21.4094 18.5985 21.4094C24.4997 21.4094 29.2825 16.6201 29.2825 10.7116C29.2825 4.80391 24.4997 0.0142188 18.5985 0.0142188L14.6827 0C6.57394 0 0 6.58247 0 14.7022L0 23.6165C0 31.7367 6.57394 38.3191 14.6827 38.3191C22.1033 38.3191 28.2368 32.8079 29.226 25.6506L25.1676 25.7181C24.2986 30.8823 20.0155 34.6937 14.6124 34.6937L14.6124 34.6937C10.7372 34.6937 7.22597 32.5089 5.38037 29.4048C4.02513 27.1245 5.37875 22.9698 8.49631 22.358C11.0614 21.855 13.8036 21.4094 18.5985 21.4094C24.4997 21.4094 29.2825 16.6201 29.2825 10.7116C29.2825 4.80391 24.4997 0.0142188 18.5985 0.0142188L14.6827 0C6.57394 0 0 6.58247 0 14.7022L0 23.6165C0 31.7367 6.57394 38.3191 14.6827 38.3191C22.1033 38.3191 28.2368 32.8079 29.226 25.6506L25.1676 25.7181C24.2986 30.8823 20.0155 34.6937 14.6124 34.6937"/>
	</g>
	<defs>
		<clipPath id="clip_7">
			<rect x="-99.279297" y="-52.708984" width="1919.4241" height="6478.0562" clip-rule="evenodd"/>
		</clipPath>
	</defs>
	<g clip-path="url(#clip_7)">
		<path fill="rgb(254,254,254)" stroke="none" transform="matrix(0.9997 0 0 0.9997 171.731 0.736328)" d="M18.8939 4.06656C18.005 3.86344 17.0808 3.75659 16.1318 3.75659L16.131 3.75619C9.30719 3.75619 3.77691 9.28769 3.77691 16.1103L3.757 38.3151L0 38.3151L0 22.1626L0 16.1525L0 15.2437L0.0272187 15.2437C0.498469 6.74578 7.527 0 16.131 0L16.1318 0C17.0739 0 17.9965 0.0808437 18.8939 0.236031L18.8939 4.06656C18.005 3.86344 17.0808 3.75659 16.1318 3.75659L16.131 3.75619C9.30719 3.75619 3.77691 9.28769 3.77691 16.1103L3.757 38.3151L0 38.3151L0 22.1626L0 16.1525L0 15.2437L0.0272187 15.2437C0.498469 6.74578 7.527 0 16.131 0L16.1318 0C17.0739 0 17.9965 0.0808437 18.8939 0.236031L18.8939 4.06656Z"/>
	</g>
</svg>
